<mxfile host="drawio-plugin" modified="2024-11-24T18:16:12.312Z" agent="Mozilla/5.0 (Windows NT 10.0; Win64; x64) AppleWebKit/537.36 (KHTML, like Gecko) Chrome/122.0.0.0 Safari/537.36" etag="Tx_EG_EGVj379S44qWj8" version="22.1.22" type="embed">
  <diagram id="rnzY0O4AlzitF-j8xZDR" name="Page-1">
    <mxGraphModel dx="900" dy="739" grid="1" gridSize="10" guides="1" tooltips="1" connect="1" arrows="1" fold="1" page="1" pageScale="1" pageWidth="850" pageHeight="1100" math="0" shadow="0">
      <root>
        <mxCell id="0" />
        <mxCell id="1" parent="0" />
        <mxCell id="5" value="" style="rounded=0;whiteSpace=wrap;html=1;" parent="1" vertex="1">
          <mxGeometry x="130" y="90" width="450" height="610" as="geometry" />
        </mxCell>
        <mxCell id="6" value="&amp;lt;&amp;lt;component&amp;gt;&amp;gt;&lt;br&gt;Controller" style="rounded=0;whiteSpace=wrap;html=1;" parent="1" vertex="1">
          <mxGeometry x="180" y="150" width="120" height="60" as="geometry" />
        </mxCell>
        <mxCell id="7" value="&amp;lt;&amp;lt;component&amp;gt;&amp;gt;&lt;br&gt;Service" style="rounded=0;whiteSpace=wrap;html=1;" parent="1" vertex="1">
          <mxGeometry x="180" y="340" width="120" height="60" as="geometry" />
        </mxCell>
        <mxCell id="8" value="&amp;lt;&amp;lt;component&amp;gt;&amp;gt;&lt;br&gt;Repository" style="rounded=0;whiteSpace=wrap;html=1;" parent="1" vertex="1">
          <mxGeometry x="180" y="510" width="120" height="60" as="geometry" />
        </mxCell>
        <mxCell id="9" value="&amp;lt;&amp;lt;container&amp;gt;&amp;gt;&lt;br&gt;Database" style="rounded=0;whiteSpace=wrap;html=1;" parent="1" vertex="1">
          <mxGeometry x="180" y="800" width="120" height="60" as="geometry" />
        </mxCell>
        <mxCell id="12" value="" style="endArrow=none;html=1;rounded=0;entryX=1;entryY=0.5;entryDx=0;entryDy=0;entryPerimeter=0;exitX=1;exitY=0.25;exitDx=0;exitDy=0;" parent="1" source="7" edge="1">
          <mxGeometry width="50" height="50" relative="1" as="geometry">
            <mxPoint x="320" y="360.09000000000015" as="sourcePoint" />
            <mxPoint x="660.0015230484362" y="359.485475935627" as="targetPoint" />
          </mxGeometry>
        </mxCell>
        <mxCell id="16" value="API" style="text;html=1;align=center;verticalAlign=middle;resizable=0;points=[];autosize=1;strokeColor=none;fillColor=none;" parent="1" vertex="1">
          <mxGeometry x="655" y="375.09" width="40" height="30" as="geometry" />
        </mxCell>
        <mxCell id="17" value="" style="shape=providedRequiredInterface;html=1;verticalLabelPosition=bottom;sketch=0;" parent="1" vertex="1">
          <mxGeometry x="660" y="345.09" width="30" height="30" as="geometry" />
        </mxCell>
        <mxCell id="19" value="" style="shape=providedRequiredInterface;html=1;verticalLabelPosition=bottom;sketch=0;rotation=-90;" parent="1" vertex="1">
          <mxGeometry x="225" y="740" width="30" height="30" as="geometry" />
        </mxCell>
        <mxCell id="24" value="" style="endArrow=none;html=1;rounded=0;exitX=0.5;exitY=0;exitDx=0;exitDy=0;" parent="1" source="9" target="19" edge="1">
          <mxGeometry width="50" height="50" relative="1" as="geometry">
            <mxPoint x="460" y="430" as="sourcePoint" />
            <mxPoint x="510" y="380" as="targetPoint" />
          </mxGeometry>
        </mxCell>
        <mxCell id="25" value="" style="endArrow=none;html=1;rounded=0;exitX=1;exitY=0.5;exitDx=0;exitDy=0;exitPerimeter=0;entryX=0.5;entryY=1;entryDx=0;entryDy=0;" parent="1" source="19" target="8" edge="1">
          <mxGeometry width="50" height="50" relative="1" as="geometry">
            <mxPoint x="460" y="430" as="sourcePoint" />
            <mxPoint x="510" y="380" as="targetPoint" />
          </mxGeometry>
        </mxCell>
        <mxCell id="29" value="Database&amp;nbsp;&lt;br&gt;API" style="text;html=1;align=center;verticalAlign=middle;resizable=0;points=[];autosize=1;strokeColor=none;fillColor=none;" parent="1" vertex="1">
          <mxGeometry x="130" y="750" width="80" height="40" as="geometry" />
        </mxCell>
        <mxCell id="30" value="" style="endArrow=none;html=1;rounded=0;exitX=0.5;exitY=0;exitDx=0;exitDy=0;entryX=0.5;entryY=1;entryDx=0;entryDy=0;" parent="1" source="8" target="7" edge="1">
          <mxGeometry width="50" height="50" relative="1" as="geometry">
            <mxPoint x="460" y="410" as="sourcePoint" />
            <mxPoint x="510" y="360" as="targetPoint" />
          </mxGeometry>
        </mxCell>
        <mxCell id="31" value="" style="endArrow=none;html=1;rounded=0;exitX=0.5;exitY=0;exitDx=0;exitDy=0;entryX=0.5;entryY=1;entryDx=0;entryDy=0;" parent="1" source="7" target="6" edge="1">
          <mxGeometry width="50" height="50" relative="1" as="geometry">
            <mxPoint x="460" y="410" as="sourcePoint" />
            <mxPoint x="510" y="360" as="targetPoint" />
          </mxGeometry>
        </mxCell>
        <mxCell id="32" value="&amp;lt;&amp;lt;container&amp;gt;&amp;gt;&lt;br&gt;backend" style="text;html=1;strokeColor=none;fillColor=none;align=center;verticalAlign=middle;whiteSpace=wrap;rounded=0;" parent="1" vertex="1">
          <mxGeometry x="325" y="100" width="60" height="30" as="geometry" />
        </mxCell>
        <mxCell id="33" value="" style="rounded=0;whiteSpace=wrap;html=1;" parent="1" vertex="1">
          <mxGeometry x="850" y="80" width="460" height="620" as="geometry" />
        </mxCell>
        <mxCell id="34" value="&amp;lt;&amp;lt;container&amp;gt;&amp;gt;&lt;br&gt;frontend" style="text;html=1;strokeColor=none;fillColor=none;align=center;verticalAlign=middle;whiteSpace=wrap;rounded=0;" parent="1" vertex="1">
          <mxGeometry x="1060" y="90" width="60" height="30" as="geometry" />
        </mxCell>
        <mxCell id="37" value="&amp;lt;&amp;lt;component&amp;gt;&amp;gt;&lt;br&gt;Service" style="rounded=0;whiteSpace=wrap;html=1;" parent="1" vertex="1">
          <mxGeometry x="900" y="330.09" width="120" height="60" as="geometry" />
        </mxCell>
        <mxCell id="38" value="" style="endArrow=none;html=1;rounded=0;entryX=0;entryY=0.5;entryDx=0;entryDy=0;exitX=1;exitY=0.5;exitDx=0;exitDy=0;exitPerimeter=0;" parent="1" source="17" target="37" edge="1">
          <mxGeometry width="50" height="50" relative="1" as="geometry">
            <mxPoint x="505" y="440.51" as="sourcePoint" />
            <mxPoint x="845.0015230484362" y="439.995475935627" as="targetPoint" />
          </mxGeometry>
        </mxCell>
        <mxCell id="39" value="&amp;lt;&amp;lt;component&amp;gt;&amp;gt;&lt;br&gt;Components" style="rounded=0;whiteSpace=wrap;html=1;" parent="1" vertex="1">
          <mxGeometry x="1120" y="230" width="120" height="60" as="geometry" />
        </mxCell>
        <mxCell id="42" value="&amp;lt;&amp;lt;compoent&amp;gt;&amp;gt;&lt;br&gt;Routes" style="rounded=0;whiteSpace=wrap;html=1;" parent="1" vertex="1">
          <mxGeometry x="910" y="495" width="120" height="60" as="geometry" />
        </mxCell>
        <mxCell id="44" value="" style="endArrow=none;html=1;rounded=0;exitX=0.431;exitY=-0.012;exitDx=0;exitDy=0;exitPerimeter=0;entryX=0.5;entryY=1;entryDx=0;entryDy=0;" parent="1" source="42" target="37" edge="1">
          <mxGeometry width="50" height="50" relative="1" as="geometry">
            <mxPoint x="1170" y="450" as="sourcePoint" />
            <mxPoint x="1220" y="400" as="targetPoint" />
          </mxGeometry>
        </mxCell>
        <mxCell id="45" value="" style="endArrow=none;html=1;rounded=0;exitX=0.863;exitY=0.019;exitDx=0;exitDy=0;exitPerimeter=0;" parent="1" source="42" edge="1">
          <mxGeometry width="50" height="50" relative="1" as="geometry">
            <mxPoint x="1170" y="450" as="sourcePoint" />
            <mxPoint x="1170" y="290" as="targetPoint" />
            <Array as="points">
              <mxPoint x="1014" y="430" />
              <mxPoint x="1170" y="430" />
            </Array>
          </mxGeometry>
        </mxCell>
        <mxCell id="46" value="" style="endArrow=none;html=1;rounded=0;exitX=0.008;exitY=0.383;exitDx=0;exitDy=0;entryX=0.5;entryY=0;entryDx=0;entryDy=0;exitPerimeter=0;" parent="1" source="39" target="37" edge="1">
          <mxGeometry width="50" height="50" relative="1" as="geometry">
            <mxPoint x="1010" y="470" as="sourcePoint" />
            <mxPoint x="1060" y="420" as="targetPoint" />
            <Array as="points">
              <mxPoint x="960" y="253" />
            </Array>
          </mxGeometry>
        </mxCell>
      </root>
    </mxGraphModel>
  </diagram>
</mxfile>
